# xmcd CD database file
#
# Track frame offsets:
#	150
#	18660
#	39750
#	66710
#	84685
#	99192
#	117060
#	138545
#	154085
#	169660
#	186157
#	204767
#	218955
#	236522
#	261337
#	279905
#	298462
#	315870
#
# Disc length: 4487 seconds
#
# Revision: 0
# Processed by: cddbd v1.5.1PL0 Copyright (c) Steve Scherf et al.
# Submitted via: CDex 1.51
#
DISCID=01118512
DTITLE=OUR SONGS - OUR SONGS 08
DYEAR=2004
DGENRE=JPop
TTITLE0=愛は勝つ
TTITLE1=シルエット・ロマンス
TTITLE2=大阪で生まれた女
TTITLE3=ダンシング・オールナイト
TTITLE4=ROMANTICが止まらない
TTITLE5=色つきの女でいてくれよ
TTITLE6=熱き心に
TTITLE7=春なのに
TTITLE8=DESIRE
TTITLE9=人として
TTITLE10=ないものねだりの I WANT YOU
TTITLE11=バージンブルー
TTITLE12=夏女ソニア
TTITLE13=イン・ザ・ネイム・オブ・ラブ
TTITLE14=シクラメンのかほり
TTITLE15=贈る言葉
TTITLE16=たそがれマイ・ラヴ
TTITLE17=ラヴ・イズ・オーヴァー
EXTD=YEAR: 20041230
EXTT0=
EXTT1=
EXTT2=
EXTT3=
EXTT4=
EXTT5=
EXTT6=
EXTT7=
EXTT8=
EXTT9=
EXTT10=
EXTT11=
EXTT12=
EXTT13=
EXTT14=
EXTT15=
EXTT16=
EXTT17=
PLAYORDER=
